<svg xmlns="http://www.w3.org/2000/svg" viewBox="0 0 660 620" font-family="-apple-system, Helvetica, Arial, sans-serif"><rect width="660" height="620" fill="white"/><text x="20" y="26" font-size="15" font-weight="700" fill="#18181b">Base layer — Canary (matrix) on U.S. QWERTY via Karabiner</text><rect x="20" y="38" width="42.0" height="42" rx="6" fill="#f4f4f5" stroke="#d4d4d8" stroke-width="1.2"/><text x="41.0" y="60.0" text-anchor="middle" dominant-baseline="central" font-size="17" font-weight="600" fill="#18181b">w</text><rect x="66.0" y="38" width="42.0" height="42" rx="6" fill="#f4f4f5" stroke="#d4d4d8" stroke-width="1.2"/><text x="87.0" y="60.0" text-anchor="middle" dominant-baseline="central" font-size="17" font-weight="600" fill="#18181b">l</text><rect x="112.0" y="38" width="42.0" height="42" rx="6" fill="#f4f4f5" stroke="#d4d4d8" stroke-width="1.2"/><text x="133.0" y="60.0" text-anchor="middle" dominant-baseline="central" font-size="17" font-weight="600" fill="#18181b">y</text><rect x="158.0" y="38" width="42.0" height="42" rx="6" fill="#f4f4f5" stroke="#d4d4d8" stroke-width="1.2"/><text x="179.0" y="60.0" text-anchor="middle" dominant-baseline="central" font-size="17" font-weight="600" fill="#18181b">p</text><rect x="204.0" y="38" width="42.0" height="42" rx="6" fill="#f4f4f5" stroke="#d4d4d8" stroke-width="1.2"/><text x="225.0" y="60.0" text-anchor="middle" dominant-baseline="central" font-size="17" font-weight="600" fill="#18181b">k</text><rect x="250.0" y="38" width="42.0" height="42" rx="6" fill="#f4f4f5" stroke="#d4d4d8" stroke-width="1.2"/><text x="271.0" y="60.0" text-anchor="middle" dominant-baseline="central" font-size="17" font-weight="600" fill="#18181b">z</text><rect x="296.0" y="38" width="42.0" height="42" rx="6" fill="#f4f4f5" stroke="#d4d4d8" stroke-width="1.2"/><text x="317.0" y="60.0" text-anchor="middle" dominant-baseline="central" font-size="17" font-weight="600" fill="#18181b">x</text><rect x="342.0" y="38" width="42.0" height="42" rx="6" fill="#e0f2fe" stroke="#7dd3fc" stroke-width="1.2"/><text x="363.0" y="60.0" text-anchor="middle" dominant-baseline="central" font-size="17" font-weight="600" fill="#0c4a6e">o</text><rect x="388.0" y="38" width="42.0" height="42" rx="6" fill="#e0f2fe" stroke="#7dd3fc" stroke-width="1.2"/><text x="409.0" y="60.0" text-anchor="middle" dominant-baseline="central" font-size="17" font-weight="600" fill="#0c4a6e">u</text><rect x="434.0" y="38" width="42.0" height="42" rx="6" fill="#f4f4f5" stroke="#d4d4d8" stroke-width="1.2"/><text x="455.0" y="60.0" text-anchor="middle" dominant-baseline="central" font-size="17" font-weight="600" fill="#18181b">;</text><text x="469.0" y="51" text-anchor="end" font-size="10" fill="#18181b" opacity="0.65">:</text><rect x="480.0" y="38" width="42.0" height="42" rx="6" fill="#fafafa" stroke="#e4e4e7" stroke-width="1.2"/><text x="501.0" y="60.0" text-anchor="middle" dominant-baseline="central" font-size="17" font-weight="600" fill="#a1a1aa">[</text><text x="515.0" y="51" text-anchor="end" font-size="10" fill="#a1a1aa" opacity="0.65">{</text><rect x="526.0" y="38" width="42.0" height="42" rx="6" fill="#fafafa" stroke="#e4e4e7" stroke-width="1.2"/><text x="547.0" y="60.0" text-anchor="middle" dominant-baseline="central" font-size="17" font-weight="600" fill="#a1a1aa">]</text><text x="561.0" y="51" text-anchor="end" font-size="10" fill="#a1a1aa" opacity="0.65">}</text><rect x="572.0" y="38" width="42.0" height="42" rx="6" fill="#fafafa" stroke="#e4e4e7" stroke-width="1.2"/><text x="593.0" y="60.0" text-anchor="middle" dominant-baseline="central" font-size="17" font-weight="600" fill="#a1a1aa">\</text><text x="607.0" y="51" text-anchor="end" font-size="10" fill="#a1a1aa" opacity="0.65">|</text><rect x="32" y="86" width="42.0" height="42" rx="6" fill="#f4f4f5" stroke="#d4d4d8" stroke-width="1.2"/><text x="53.0" y="108.0" text-anchor="middle" dominant-baseline="central" font-size="17" font-weight="600" fill="#18181b">c</text><rect x="78.0" y="86" width="42.0" height="42" rx="6" fill="#f4f4f5" stroke="#d4d4d8" stroke-width="1.2"/><text x="99.0" y="108.0" text-anchor="middle" dominant-baseline="central" font-size="17" font-weight="600" fill="#18181b">r</text><rect x="124.0" y="86" width="42.0" height="42" rx="6" fill="#f4f4f5" stroke="#d4d4d8" stroke-width="1.2"/><text x="145.0" y="108.0" text-anchor="middle" dominant-baseline="central" font-size="17" font-weight="600" fill="#18181b">s</text><rect x="170.0" y="86" width="42.0" height="42" rx="6" fill="#f4f4f5" stroke="#d4d4d8" stroke-width="1.2"/><text x="191.0" y="108.0" text-anchor="middle" dominant-baseline="central" font-size="17" font-weight="600" fill="#18181b">t</text><rect x="216.0" y="86" width="42.0" height="42" rx="6" fill="#f4f4f5" stroke="#d4d4d8" stroke-width="1.2"/><text x="237.0" y="108.0" text-anchor="middle" dominant-baseline="central" font-size="17" font-weight="600" fill="#18181b">b</text><rect x="262.0" y="86" width="42.0" height="42" rx="6" fill="#f4f4f5" stroke="#d4d4d8" stroke-width="1.2"/><text x="283.0" y="108.0" text-anchor="middle" dominant-baseline="central" font-size="17" font-weight="600" fill="#18181b">f</text><rect x="308.0" y="86" width="42.0" height="42" rx="6" fill="#f4f4f5" stroke="#d4d4d8" stroke-width="1.2"/><text x="329.0" y="108.0" text-anchor="middle" dominant-baseline="central" font-size="17" font-weight="600" fill="#18181b">n</text><rect x="354.0" y="86" width="42.0" height="42" rx="6" fill="#e0f2fe" stroke="#7dd3fc" stroke-width="1.2"/><text x="375.0" y="108.0" text-anchor="middle" dominant-baseline="central" font-size="17" font-weight="600" fill="#0c4a6e">e</text><rect x="400.0" y="86" width="42.0" height="42" rx="6" fill="#e0f2fe" stroke="#7dd3fc" stroke-width="1.2"/><text x="421.0" y="108.0" text-anchor="middle" dominant-baseline="central" font-size="17" font-weight="600" fill="#0c4a6e">i</text><rect x="446.0" y="86" width="42.0" height="42" rx="6" fill="#e0f2fe" stroke="#7dd3fc" stroke-width="1.2"/><text x="467.0" y="108.0" text-anchor="middle" dominant-baseline="central" font-size="17" font-weight="600" fill="#0c4a6e">a</text><rect x="492.0" y="86" width="42.0" height="42" rx="6" fill="#fafafa" stroke="#e4e4e7" stroke-width="1.2"/><text x="513.0" y="108.0" text-anchor="middle" dominant-baseline="central" font-size="17" font-weight="600" fill="#a1a1aa">'</text><text x="527.0" y="99" text-anchor="end" font-size="10" fill="#a1a1aa" opacity="0.65">"</text><rect x="50" y="134" width="42.0" height="42" rx="6" fill="#f4f4f5" stroke="#d4d4d8" stroke-width="1.2"/><text x="71.0" y="156.0" text-anchor="middle" dominant-baseline="central" font-size="17" font-weight="600" fill="#18181b">j</text><rect x="96.0" y="134" width="42.0" height="42" rx="6" fill="#f4f4f5" stroke="#d4d4d8" stroke-width="1.2"/><text x="117.0" y="156.0" text-anchor="middle" dominant-baseline="central" font-size="17" font-weight="600" fill="#18181b">v</text><rect x="142.0" y="134" width="42.0" height="42" rx="6" fill="#f4f4f5" stroke="#d4d4d8" stroke-width="1.2"/><text x="163.0" y="156.0" text-anchor="middle" dominant-baseline="central" font-size="17" font-weight="600" fill="#18181b">d</text><rect x="188.0" y="134" width="42.0" height="42" rx="6" fill="#f4f4f5" stroke="#d4d4d8" stroke-width="1.2"/><text x="209.0" y="156.0" text-anchor="middle" dominant-baseline="central" font-size="17" font-weight="600" fill="#18181b">g</text><rect x="234.0" y="134" width="42.0" height="42" rx="6" fill="#f4f4f5" stroke="#d4d4d8" stroke-width="1.2"/><text x="255.0" y="156.0" text-anchor="middle" dominant-baseline="central" font-size="17" font-weight="600" fill="#18181b">q</text><rect x="280.0" y="134" width="42.0" height="42" rx="6" fill="#f4f4f5" stroke="#d4d4d8" stroke-width="1.2"/><text x="301.0" y="156.0" text-anchor="middle" dominant-baseline="central" font-size="17" font-weight="600" fill="#18181b">m</text><rect x="326.0" y="134" width="42.0" height="42" rx="6" fill="#f4f4f5" stroke="#d4d4d8" stroke-width="1.2"/><text x="347.0" y="156.0" text-anchor="middle" dominant-baseline="central" font-size="17" font-weight="600" fill="#18181b">h</text><rect x="372.0" y="134" width="42.0" height="42" rx="6" fill="#f4f4f5" stroke="#d4d4d8" stroke-width="1.2"/><text x="393.0" y="156.0" text-anchor="middle" dominant-baseline="central" font-size="17" font-weight="600" fill="#18181b">/</text><text x="407.0" y="147" text-anchor="end" font-size="10" fill="#18181b" opacity="0.65">?</text><rect x="418.0" y="134" width="42.0" height="42" rx="6" fill="#f4f4f5" stroke="#d4d4d8" stroke-width="1.2"/><text x="439.0" y="156.0" text-anchor="middle" dominant-baseline="central" font-size="17" font-weight="600" fill="#18181b">,</text><text x="453.0" y="147" text-anchor="end" font-size="10" fill="#18181b" opacity="0.65">&lt;</text><rect x="464.0" y="134" width="42.0" height="42" rx="6" fill="#f4f4f5" stroke="#d4d4d8" stroke-width="1.2"/><text x="485.0" y="156.0" text-anchor="middle" dominant-baseline="central" font-size="17" font-weight="600" fill="#18181b">.</text><text x="499.0" y="147" text-anchor="end" font-size="10" fill="#18181b" opacity="0.65">&gt;</text><text x="20" y="232" font-size="15" font-weight="700" fill="#18181b">Extend layer — hold Caps Lock</text><rect x="20" y="244" width="42.0" height="42" rx="6" fill="#fafafa" stroke="#e4e4e7" stroke-width="1.2"/><text x="41.0" y="266.0" text-anchor="middle" dominant-baseline="central" font-size="17" font-weight="600" fill="#a1a1aa">w</text><text x="26" y="257" font-size="9" fill="#a1a1aa">Q</text><rect x="66.0" y="244" width="42.0" height="42" rx="6" fill="#dbeafe" stroke="#60a5fa" stroke-width="1.2"/><text x="87.0" y="266.0" text-anchor="middle" dominant-baseline="central" font-size="17" font-weight="600" fill="#1e3a8a">!</text><text x="72.0" y="257" font-size="9" fill="#a1a1aa">W</text><rect x="112.0" y="244" width="42.0" height="42" rx="6" fill="#ccfbf1" stroke="#2dd4bf" stroke-width="1.2"/><text x="133.0" y="266.0" text-anchor="middle" dominant-baseline="central" font-size="17" font-weight="600" fill="#134e4a">{</text><text x="118.0" y="257" font-size="9" fill="#a1a1aa">E</text><rect x="158.0" y="244" width="42.0" height="42" rx="6" fill="#ffedd5" stroke="#fb923c" stroke-width="1.2"/><text x="179.0" y="266.0" text-anchor="middle" dominant-baseline="central" font-size="17" font-weight="600" fill="#7c2d12">}</text><text x="164.0" y="257" font-size="9" fill="#a1a1aa">R</text><rect x="204.0" y="244" width="42.0" height="42" rx="6" fill="#dbeafe" stroke="#60a5fa" stroke-width="1.2"/><text x="225.0" y="266.0" text-anchor="middle" dominant-baseline="central" font-size="12" font-weight="600" fill="#1e3a8a">&amp;</text><text x="210.0" y="257" font-size="9" fill="#a1a1aa">T</text><rect x="250.0" y="244" width="42.0" height="42" rx="6" fill="#fafafa" stroke="#e4e4e7" stroke-width="1.2"/><text x="271.0" y="266.0" text-anchor="middle" dominant-baseline="central" font-size="17" font-weight="600" fill="#a1a1aa">z</text><text x="256.0" y="257" font-size="9" fill="#a1a1aa">Y</text><rect x="296.0" y="244" width="42.0" height="42" rx="6" fill="#fafafa" stroke="#e4e4e7" stroke-width="1.2"/><text x="317.0" y="266.0" text-anchor="middle" dominant-baseline="central" font-size="17" font-weight="600" fill="#a1a1aa">x</text><text x="302.0" y="257" font-size="9" fill="#a1a1aa">U</text><rect x="342.0" y="244" width="42.0" height="42" rx="6" fill="#ede9fe" stroke="#a78bfa" stroke-width="1.2"/><text x="363.0" y="266.0" text-anchor="middle" dominant-baseline="central" font-size="17" font-weight="600" fill="#4c1d95">↑</text><text x="348.0" y="257" font-size="9" fill="#a1a1aa">I</text><rect x="388.0" y="244" width="42.0" height="42" rx="6" fill="#fafafa" stroke="#e4e4e7" stroke-width="1.2"/><text x="409.0" y="266.0" text-anchor="middle" dominant-baseline="central" font-size="17" font-weight="600" fill="#a1a1aa">u</text><text x="394.0" y="257" font-size="9" fill="#a1a1aa">O</text><rect x="434.0" y="244" width="42.0" height="42" rx="6" fill="#fafafa" stroke="#e4e4e7" stroke-width="1.2"/><text x="455.0" y="266.0" text-anchor="middle" dominant-baseline="central" font-size="17" font-weight="600" fill="#a1a1aa">=</text><text x="440.0" y="257" font-size="9" fill="#a1a1aa">P</text><rect x="480.0" y="244" width="42.0" height="42" rx="6" fill="#fafafa" stroke="#e4e4e7" stroke-width="1.2"/><text x="501.0" y="266.0" text-anchor="middle" dominant-baseline="central" font-size="17" font-weight="600" fill="#a1a1aa"></text><rect x="526.0" y="244" width="42.0" height="42" rx="6" fill="#fafafa" stroke="#e4e4e7" stroke-width="1.2"/><text x="547.0" y="266.0" text-anchor="middle" dominant-baseline="central" font-size="17" font-weight="600" fill="#a1a1aa"></text><rect x="572.0" y="244" width="42.0" height="42" rx="6" fill="#fafafa" stroke="#e4e4e7" stroke-width="1.2"/><text x="593.0" y="266.0" text-anchor="middle" dominant-baseline="central" font-size="17" font-weight="600" fill="#a1a1aa"></text><rect x="32" y="292" width="42.0" height="42" rx="6" fill="#fafafa" stroke="#e4e4e7" stroke-width="1.2"/><text x="53.0" y="314.0" text-anchor="middle" dominant-baseline="central" font-size="17" font-weight="600" fill="#a1a1aa">c</text><text x="38" y="305" font-size="9" fill="#a1a1aa">A</text><rect x="78.0" y="292" width="42.0" height="42" rx="6" fill="#dbeafe" stroke="#60a5fa" stroke-width="1.2"/><text x="99.0" y="314.0" text-anchor="middle" dominant-baseline="central" font-size="17" font-weight="600" fill="#1e3a8a">_</text><text x="84.0" y="305" font-size="9" fill="#a1a1aa">S</text><rect x="124.0" y="292" width="42.0" height="42" rx="6" fill="#ccfbf1" stroke="#2dd4bf" stroke-width="1.2"/><text x="145.0" y="314.0" text-anchor="middle" dominant-baseline="central" font-size="17" font-weight="600" fill="#134e4a">(</text><text x="130.0" y="305" font-size="9" fill="#a1a1aa">D</text><rect x="170.0" y="292" width="42.0" height="42" rx="6" fill="#ffedd5" stroke="#fb923c" stroke-width="1.2"/><text x="191.0" y="314.0" text-anchor="middle" dominant-baseline="central" font-size="17" font-weight="600" fill="#7c2d12">)</text><text x="176.0" y="305" font-size="9" fill="#a1a1aa">F</text><rect x="216.0" y="292" width="42.0" height="42" rx="6" fill="#dbeafe" stroke="#60a5fa" stroke-width="1.2"/><text x="237.0" y="314.0" text-anchor="middle" dominant-baseline="central" font-size="17" font-weight="600" fill="#1e3a8a">=</text><text x="251.0" y="305" text-anchor="end" font-size="10" fill="#1e3a8a" opacity="0.65">⇧ +</text><text x="222.0" y="305" font-size="9" fill="#a1a1aa">G</text><rect x="262.0" y="292" width="42.0" height="42" rx="6" fill="#fafafa" stroke="#e4e4e7" stroke-width="1.2"/><text x="283.0" y="314.0" text-anchor="middle" dominant-baseline="central" font-size="17" font-weight="600" fill="#a1a1aa">f</text><text x="268.0" y="305" font-size="9" fill="#a1a1aa">H</text><rect x="308.0" y="292" width="42.0" height="42" rx="6" fill="#ede9fe" stroke="#a78bfa" stroke-width="1.2"/><text x="329.0" y="314.0" text-anchor="middle" dominant-baseline="central" font-size="17" font-weight="600" fill="#4c1d95">←</text><text x="314.0" y="305" font-size="9" fill="#a1a1aa">J</text><rect x="354.0" y="292" width="42.0" height="42" rx="6" fill="#ede9fe" stroke="#a78bfa" stroke-width="1.2"/><text x="375.0" y="314.0" text-anchor="middle" dominant-baseline="central" font-size="17" font-weight="600" fill="#4c1d95">↓</text><text x="360.0" y="305" font-size="9" fill="#a1a1aa">K</text><rect x="400.0" y="292" width="42.0" height="42" rx="6" fill="#ede9fe" stroke="#a78bfa" stroke-width="1.2"/><text x="421.0" y="314.0" text-anchor="middle" dominant-baseline="central" font-size="17" font-weight="600" fill="#4c1d95">→</text><text x="406.0" y="305" font-size="9" fill="#a1a1aa">L</text><rect x="446.0" y="292" width="42.0" height="42" rx="6" fill="#fafafa" stroke="#e4e4e7" stroke-width="1.2"/><text x="467.0" y="314.0" text-anchor="middle" dominant-baseline="central" font-size="17" font-weight="600" fill="#a1a1aa">a</text><text x="452.0" y="305" font-size="9" fill="#a1a1aa">;</text><rect x="492.0" y="292" width="42.0" height="42" rx="6" fill="#fafafa" stroke="#e4e4e7" stroke-width="1.2"/><text x="513.0" y="314.0" text-anchor="middle" dominant-baseline="central" font-size="17" font-weight="600" fill="#a1a1aa">'</text><rect x="50" y="340" width="42.0" height="42" rx="6" fill="#fafafa" stroke="#e4e4e7" stroke-width="1.2"/><text x="71.0" y="362.0" text-anchor="middle" dominant-baseline="central" font-size="17" font-weight="600" fill="#a1a1aa">j</text><text x="56" y="353" font-size="9" fill="#a1a1aa">Z</text><rect x="96.0" y="340" width="42.0" height="42" rx="6" fill="#dbeafe" stroke="#60a5fa" stroke-width="1.2"/><text x="117.0" y="362.0" text-anchor="middle" dominant-baseline="central" font-size="17" font-weight="600" fill="#1e3a8a">*</text><text x="102.0" y="353" font-size="9" fill="#a1a1aa">X</text><rect x="142.0" y="340" width="42.0" height="42" rx="6" fill="#ccfbf1" stroke="#2dd4bf" stroke-width="1.2"/><text x="163.0" y="362.0" text-anchor="middle" dominant-baseline="central" font-size="17" font-weight="600" fill="#134e4a">[</text><text x="148.0" y="353" font-size="9" fill="#a1a1aa">C</text><rect x="188.0" y="340" width="42.0" height="42" rx="6" fill="#ffedd5" stroke="#fb923c" stroke-width="1.2"/><text x="209.0" y="362.0" text-anchor="middle" dominant-baseline="central" font-size="17" font-weight="600" fill="#7c2d12">]</text><text x="194.0" y="353" font-size="9" fill="#a1a1aa">V</text><rect x="234.0" y="340" width="42.0" height="42" rx="6" fill="#dbeafe" stroke="#60a5fa" stroke-width="1.2"/><text x="255.0" y="362.0" text-anchor="middle" dominant-baseline="central" font-size="17" font-weight="600" fill="#1e3a8a">|</text><text x="240.0" y="353" font-size="9" fill="#a1a1aa">B</text><rect x="280.0" y="340" width="42.0" height="42" rx="6" fill="#fafafa" stroke="#e4e4e7" stroke-width="1.2"/><text x="301.0" y="362.0" text-anchor="middle" dominant-baseline="central" font-size="17" font-weight="600" fill="#a1a1aa">m</text><text x="286.0" y="353" font-size="9" fill="#a1a1aa">N</text><rect x="326.0" y="340" width="42.0" height="42" rx="6" fill="#dbeafe" stroke="#60a5fa" stroke-width="1.2"/><text x="347.0" y="362.0" text-anchor="middle" dominant-baseline="central" font-size="17" font-weight="600" fill="#1e3a8a">.</text><text x="361.0" y="353" text-anchor="end" font-size="10" fill="#1e3a8a" opacity="0.65">⇧ &gt;</text><text x="332.0" y="353" font-size="9" fill="#a1a1aa">M</text><rect x="372.0" y="340" width="42.0" height="42" rx="6" fill="#fafafa" stroke="#e4e4e7" stroke-width="1.2"/><text x="393.0" y="362.0" text-anchor="middle" dominant-baseline="central" font-size="17" font-weight="600" fill="#a1a1aa">/</text><rect x="418.0" y="340" width="42.0" height="42" rx="6" fill="#fafafa" stroke="#e4e4e7" stroke-width="1.2"/><text x="439.0" y="362.0" text-anchor="middle" dominant-baseline="central" font-size="17" font-weight="600" fill="#a1a1aa">,</text><rect x="464.0" y="340" width="42.0" height="42" rx="6" fill="#fafafa" stroke="#e4e4e7" stroke-width="1.2"/><text x="485.0" y="362.0" text-anchor="middle" dominant-baseline="central" font-size="17" font-weight="600" fill="#a1a1aa">.</text><rect x="120" y="388" width="226.0" height="42" rx="6" fill="#fef9c3" stroke="#facc15" stroke-width="1.2"/><text x="233.0" y="410.0" text-anchor="middle" dominant-baseline="central" font-size="12" font-weight="600" fill="#713f12">⌫  Backspace</text><rect x="358" y="388" width="203.0" height="42" rx="6" fill="#fef9c3" stroke="#facc15" stroke-width="1.2"/><text x="459.5" y="410.0" text-anchor="middle" dominant-baseline="central" font-size="12" font-weight="600" fill="#713f12">↵  → end of line + ;</text><text x="126" y="384" font-size="9" fill="#a1a1aa">SPACE</text><text x="364" y="384" font-size="9" fill="#a1a1aa">ENTER</text><rect x="20" y="470" width="14" height="14" rx="3" fill="#ccfbf1" stroke="#2dd4bf"/><text x="41" y="481" font-size="12" fill="#3f3f46">openers — middle-finger column (E D C)</text><rect x="340" y="470" width="14" height="14" rx="3" fill="#ffedd5" stroke="#fb923c"/><text x="361" y="481" font-size="12" fill="#3f3f46">closers — index column (R F V)</text><rect x="20" y="496" width="14" height="14" rx="3" fill="#dbeafe" stroke="#60a5fa"/><text x="41" y="507" font-size="12" fill="#3f3f46">symbols: ! &amp; = _ * | and . (chain-dot on M)</text><rect x="340" y="496" width="14" height="14" rx="3" fill="#ede9fe" stroke="#a78bfa"/><text x="361" y="507" font-size="12" fill="#3f3f46">arrows I J K L (modifiers pass through)</text><rect x="20" y="522" width="14" height="14" rx="3" fill="#fef9c3" stroke="#facc15"/><text x="41" y="533" font-size="12" fill="#3f3f46">actions on thumbs: Space, Enter</text><rect x="340" y="522" width="14" height="14" rx="3" fill="#fafafa" stroke="#e4e4e7"/><text x="361" y="533" font-size="12" fill="#3f3f46">pass-through — types the Canary letter</text><text x="20" y="558" font-size="12" fill="#3f3f46">Extend + ⌘ &#8594; shortcuts at physical QWERTY positions (rescue bindings: Z X C V F S N Q T)</text><text x="20" y="578" font-size="12" fill="#3f3f46">Shift passes through everywhere: ⇧G = +, ⇧M = &gt;, ⇧ + arrows = select. Tap Caps alone = Caps Lock.</text><text x="20" y="598" font-size="11" fill="#a1a1aa">Small gray corner labels = physical QWERTY key. Faint keys fall through to the Canary base layer.</text></svg>